<svg xmlns="http://www.w3.org/2000/svg" xmlns:xlink="http://www.w3.org/1999/xlink" width="1812" zoomAndPan="magnify" viewBox="0 0 1359 294.749989" height="393" preserveAspectRatio="xMidYMid meet" version="1.0"><defs><clipPath id="e698871515"><path d="M 33.105469 53 L 220 53 L 220 240 L 33.105469 240 Z M 33.105469 53 " clip-rule="nonzero"/></clipPath><clipPath id="74103eb442"><path d="M 595 18 L 606 18 L 606 276.5 L 595 276.5 Z M 595 18 " clip-rule="nonzero"/></clipPath><clipPath id="0c26ed895a"><path d="M 1286 181 L 1325.757812 181 L 1325.757812 235 L 1286 235 Z M 1286 181 " clip-rule="nonzero"/></clipPath></defs><g clip-path="url(#e698871515)"><path fill="#fbf0df" d="M 59.160156 229.199219 L 90.199219 197.027344 C 91.234375 196.605469 100.90625 202.6875 103.5 203.679688 C 169.253906 228.820312 218.214844 142.40625 164.394531 99.199219 C 116.847656 61.039062 49.304688 108.398438 68.59375 166.933594 C 70.433594 172.59375 73.6875 177.167969 75.859375 182.59375 L 53.640625 204.765625 C 14.820312 157.171875 33.40625 85.191406 89.492188 61.132812 C 143.734375 37.878906 206.515625 70.898438 217.648438 128.679688 C 231.515625 200.707031 162.699219 258.347656 93.734375 234.148438 C 86.234375 231.507812 85.71875 229.148438 77.273438 229.148438 L 59.160156 229.148438 Z M 59.160156 229.199219 " fill-opacity="1" fill-rule="nonzero"/></g><path fill="#fbf0df" d="M 354.488281 99.859375 C 336.136719 88.351562 313.121094 76.132812 290.855469 83.820312 C 272.789062 90.046875 269.207031 111.367188 286.140625 121.464844 C 317.035156 139.90625 376.328125 131.464844 376.5625 185.234375 C 376.84375 249.292969 293.78125 248.113281 252.695312 222.828125 C 249.867188 221.085938 239.207031 214.054688 237.789062 211.839844 C 237.175781 210.894531 236.753906 210.28125 237.460938 209.246094 L 255.335938 188.679688 C 266.707031 196.367188 276.609375 204.386719 290.148438 208.300781 C 307.882812 213.394531 344.109375 214.621094 344.910156 188.820312 C 345.617188 165.378906 307.742188 162.265625 291.042969 157.171875 C 267.175781 149.90625 245.949219 140.140625 243.78125 112.125 C 238.6875 46.652344 324.015625 41.324219 364.816406 71.605469 C 366.988281 73.210938 371.183594 75.191406 369.675781 78.492188 L 354.441406 99.859375 Z M 354.488281 99.859375 " fill-opacity="1" fill-rule="nonzero"/><path fill="#fbf0df" d="M 417.363281 56.371094 L 472.03125 194.480469 L 525.191406 56.371094 L 559.910156 56.371094 L 484.25 238.113281 L 456.609375 237.972656 L 382.648438 56.371094 Z M 417.363281 56.371094 " fill-opacity="1" fill-rule="nonzero"/><path fill="#e02129" d="M 119.585938 103.820312 C 180.339844 96.746094 186.1875 184.386719 131.847656 189.953125 C 72.226562 196.039062 66.800781 110 119.585938 103.820312 Z M 128.5 129.386719 C 125.007812 132.027344 123.40625 126.839844 122.367188 125.753906 C 117.839844 120.898438 113.21875 125.378906 115.765625 126.558594 C 118.3125 127.738281 120.246094 126.414062 120.527344 129.199219 C 120.8125 131.980469 116.28125 133.867188 116.800781 136.933594 C 123.027344 134.152344 129.019531 133.914062 135.246094 136.933594 C 136.753906 133.585938 131.519531 131.226562 131.566406 129.953125 C 131.613281 125.519531 137.039062 127.027344 137.507812 126.558594 C 139.539062 124.527344 133.3125 121.039062 129.441406 126.273438 C 128.828125 127.125 128.78125 129.246094 128.546875 129.386719 Z M 124.914062 136.132812 C 120.152344 135.425781 115.8125 140.851562 113.121094 141.699219 C 110.433594 142.546875 102.179688 142.40625 106.09375 149.386719 C 107.933594 149.765625 108.5 143.207031 112.367188 144.953125 C 113.265625 151.132812 111.046875 149.058594 108.121094 150.707031 C 103.40625 153.398438 104.300781 160.234375 107.507812 156.746094 C 108.78125 155.332031 108.21875 152.21875 112.367188 153.113281 C 112.980469 160.613281 111.992188 157.074219 108.640625 158.632812 C 103.21875 161.132812 104.394531 168.160156 107.839844 165.613281 C 111.28125 163.066406 107.839844 160.519531 111.894531 161.226562 C 112.367188 161.320312 114.632812 166.320312 117.746094 168.066406 C 124.207031 171.792969 134.253906 170.660156 138.875 164.480469 C 143.5 158.300781 139.632812 161.414062 139.726562 161.320312 C 141.613281 159.859375 145.054688 163.492188 144.914062 165.660156 L 147.507812 164.953125 C 148.546875 163.492188 146.753906 161.085938 145.667969 160.09375 C 142.085938 156.886719 139.300781 160.519531 140.480469 153.113281 C 144.726562 151.886719 144.441406 157.21875 144.914062 157.546875 C 147.746094 159.527344 148.875 153.867188 145.621094 151.320312 C 142.132812 148.585938 139.394531 153.019531 140.480469 145 C 143.972656 144.386719 144.394531 146.511719 144.914062 149.433594 C 148.828125 150.09375 148.167969 146.039062 146.375 143.867188 C 144.253906 141.273438 141.425781 142.640625 138.972656 141.652344 C 138.359375 141.414062 127.132812 132.785156 127.132812 137.21875 L 127.132812 161.980469 C 126.425781 162.265625 124.914062 161.320312 124.914062 160.898438 Z M 124.914062 136.132812 " fill-opacity="1" fill-rule="nonzero"/><path fill="#e02129" d="M 162.503906 145.402344 C 162.503906 146.429688 162.449219 147.453125 162.335938 148.476562 C 162.222656 149.496094 162.054688 150.511719 161.828125 151.519531 C 161.605469 152.527344 161.324219 153.523438 160.988281 154.503906 C 160.65625 155.488281 160.269531 156.453125 159.828125 157.402344 C 159.386719 158.351562 158.894531 159.28125 158.351562 160.1875 C 157.808594 161.089844 157.21875 161.972656 156.578125 162.824219 C 155.9375 163.679688 155.253906 164.503906 154.523438 165.296875 C 153.792969 166.09375 153.019531 166.851562 152.203125 167.578125 C 151.390625 168.304688 150.539062 168.992188 149.648438 169.644531 C 148.757812 170.296875 147.832031 170.90625 146.875 171.480469 C 145.917969 172.050781 144.929688 172.578125 143.914062 173.0625 C 142.898438 173.546875 141.859375 173.984375 140.796875 174.375 C 139.730469 174.769531 138.648438 175.117188 137.546875 175.414062 C 136.445312 175.710938 135.328125 175.960938 134.199219 176.160156 C 133.070312 176.363281 131.933594 176.511719 130.785156 176.613281 C 129.640625 176.714844 128.492188 176.765625 127.339844 176.765625 C 126.1875 176.765625 125.039062 176.714844 123.894531 176.613281 C 122.746094 176.511719 121.609375 176.363281 120.480469 176.160156 C 119.347656 175.960938 118.234375 175.710938 117.132812 175.414062 C 116.03125 175.117188 114.945312 174.769531 113.882812 174.375 C 112.820312 173.984375 111.777344 173.546875 110.761719 173.0625 C 109.746094 172.578125 108.761719 172.050781 107.804688 171.480469 C 106.84375 170.90625 105.921875 170.296875 105.03125 169.644531 C 104.140625 168.992188 103.289062 168.304688 102.472656 167.578125 C 101.660156 166.851562 100.886719 166.09375 100.15625 165.296875 C 99.425781 164.503906 98.742188 163.679688 98.101562 162.824219 C 97.460938 161.972656 96.871094 161.089844 96.328125 160.1875 C 95.785156 159.28125 95.292969 158.351562 94.851562 157.402344 C 94.410156 156.453125 94.023438 155.488281 93.6875 154.503906 C 93.355469 153.523438 93.074219 152.527344 92.851562 151.519531 C 92.625 150.511719 92.457031 149.496094 92.34375 148.476562 C 92.230469 147.453125 92.175781 146.429688 92.175781 145.402344 C 92.175781 144.375 92.230469 143.351562 92.34375 142.328125 C 92.457031 141.304688 92.625 140.289062 92.851562 139.28125 C 93.074219 138.277344 93.355469 137.28125 93.6875 136.296875 C 94.023438 135.3125 94.410156 134.347656 94.851562 133.398438 C 95.292969 132.449219 95.785156 131.523438 96.328125 130.617188 C 96.871094 129.710938 97.460938 128.832031 98.101562 127.976562 C 98.742188 127.125 99.425781 126.300781 100.15625 125.503906 C 100.886719 124.710938 101.660156 123.949219 102.472656 123.226562 C 103.289062 122.5 104.140625 121.808594 105.03125 121.15625 C 105.921875 120.507812 106.84375 119.894531 107.804688 119.324219 C 108.761719 118.753906 109.746094 118.226562 110.761719 117.742188 C 111.777344 117.257812 112.820312 116.820312 113.882812 116.425781 C 114.945312 116.03125 116.03125 115.6875 117.132812 115.390625 C 118.234375 115.089844 119.347656 114.839844 120.480469 114.640625 C 121.609375 114.441406 122.746094 114.289062 123.894531 114.191406 C 125.039062 114.089844 126.1875 114.039062 127.339844 114.039062 C 128.492188 114.039062 129.640625 114.089844 130.785156 114.191406 C 131.933594 114.289062 133.070312 114.441406 134.199219 114.640625 C 135.328125 114.839844 136.445312 115.089844 137.546875 115.390625 C 138.648438 115.6875 139.730469 116.03125 140.796875 116.425781 C 141.859375 116.820312 142.898438 117.257812 143.914062 117.742188 C 144.929688 118.226562 145.917969 118.753906 146.875 119.324219 C 147.832031 119.894531 148.757812 120.507812 149.648438 121.15625 C 150.539062 121.808594 151.390625 122.5 152.203125 123.226562 C 153.019531 123.949219 153.792969 124.710938 154.523438 125.503906 C 155.253906 126.300781 155.9375 127.125 156.578125 127.976562 C 157.21875 128.832031 157.808594 129.710938 158.351562 130.617188 C 158.894531 131.523438 159.386719 132.449219 159.828125 133.398438 C 160.269531 134.347656 160.65625 135.3125 160.988281 136.296875 C 161.324219 137.28125 161.605469 138.277344 161.828125 139.28125 C 162.054688 140.289062 162.222656 141.304688 162.335938 142.328125 C 162.449219 143.351562 162.503906 144.375 162.503906 145.402344 Z M 162.503906 145.402344 " fill-opacity="1" fill-rule="nonzero"/><path fill="#fbf0df" d="M 124.507812 136 L 124.507812 162.1875 C 124.507812 162.222656 124.699219 162.660156 124.734375 162.726562 C 125.257812 163.550781 126.492188 163.574219 127.027344 162.746094 C 127.089844 162.65625 127.289062 162.21875 127.289062 162.136719 L 127.289062 136.003906 C 130.160156 136.214844 133.066406 137.074219 135.425781 138.742188 C 136.90625 139.785156 138.046875 141.152344 139.042969 142.65625 C 140.851562 142.707031 142.617188 142.4375 144.359375 143.050781 C 146.796875 143.910156 148.882812 146.585938 148.871094 149.222656 C 148.867188 151.203125 146.132812 151.710938 145.425781 149.9375 C 145.089844 149.097656 145.269531 148.433594 144.640625 147.5625 C 144.289062 147.070312 143.246094 146.300781 142.625 146.300781 L 140.527344 146.300781 C 141.027344 148.242188 140.894531 150.253906 140.910156 152.242188 C 140.976562 152.308594 141.722656 152.183594 141.863281 152.183594 C 145.320312 152.21875 148.429688 155.039062 148.648438 158.535156 C 148.804688 161.023438 145.664062 161.371094 145.132812 159.382812 C 144.863281 158.386719 144.980469 157.742188 144.207031 156.871094 C 143.816406 156.433594 142.839844 155.839844 142.246094 155.839844 L 140.851562 155.839844 C 140.933594 156.300781 140.929688 156.859375 140.910156 157.339844 C 140.871094 158.347656 140.714844 159.382812 140.507812 160.371094 C 140.417969 160.789062 140.292969 161.199219 140.199219 161.613281 C 142.777344 161.285156 145.164062 161.960938 146.871094 163.957031 C 147.675781 164.890625 148.484375 166.621094 148.589844 167.855469 C 148.800781 170.382812 145.488281 171.003906 144.894531 168.4375 C 144.644531 167.34375 144.566406 166.664062 143.625 165.890625 C 142.179688 164.695312 140.3125 165.34375 138.59375 165.210938 C 137.679688 166.730469 136.480469 168.09375 135.0625 169.160156 C 128.269531 174.257812 117.667969 172.542969 113.265625 165.1875 C 113.066406 165.070312 112.152344 165.210938 111.878906 165.21875 C 110.359375 165.246094 109.042969 164.953125 107.894531 166.195312 C 107.117188 167.03125 107.175781 167.695312 106.90625 168.6875 C 106.332031 170.820312 103.164062 170.371094 103.292969 168.015625 C 103.429688 165.40625 105.59375 162.671875 108.0625 161.882812 C 108.878906 161.621094 110.765625 161.402344 111.574219 161.585938 C 111.640625 161.597656 111.640625 161.648438 111.632812 161.527344 C 111.59375 161 111.304688 160.1875 111.210938 159.605469 C 111.007812 158.34375 110.949219 157.046875 111.03125 155.777344 C 109.710938 155.730469 108.539062 155.882812 107.65625 156.953125 C 106.992188 157.757812 107.042969 158.339844 106.8125 159.269531 C 106.300781 161.324219 103.089844 161.082031 103.234375 158.585938 C 103.347656 156.628906 104.621094 154.492188 106.21875 153.390625 C 107.636719 152.414062 109.265625 152.117188 110.976562 152.183594 L 110.976562 149.429688 C 111.082031 148.378906 111.105469 147.316406 111.410156 146.296875 L 109.3125 146.296875 C 108.46875 146.296875 107.339844 147.332031 106.984375 148.058594 C 106.449219 149.160156 106.804688 150.882812 105.0625 151.039062 C 103.476562 151.183594 102.9375 149.949219 103.140625 148.570312 C 103.566406 145.6875 105.558594 143.375 108.457031 142.820312 C 109.902344 142.546875 111.390625 142.800781 112.84375 142.632812 C 113.894531 141.15625 115.089844 139.785156 116.570312 138.726562 C 118.871094 137.085938 121.699219 136.296875 124.492188 135.992188 Z M 124.507812 136 " fill-opacity="1" fill-rule="nonzero"/><path fill="#fbf0df" d="M 122.984375 128.972656 C 124.925781 128.640625 126.890625 128.558594 128.820312 129.003906 C 129.34375 125.425781 132.121094 122.128906 135.988281 122.378906 C 137.546875 122.476562 138.6875 123.855469 137.675781 125.265625 C 136.988281 126.21875 135.730469 125.753906 134.765625 126.0625 C 133.796875 126.367188 133.023438 127.246094 132.652344 128.140625 C 132.515625 128.46875 132.089844 129.925781 132.230469 130.171875 C 132.253906 130.21875 132.851562 130.636719 132.964844 130.742188 C 134.554688 132.195312 135.871094 134.21875 136.070312 136.410156 C 136.09375 136.6875 136.015625 136.992188 136.128906 137.253906 C 136.054688 137.3125 134.917969 136.527344 134.746094 136.429688 C 129.769531 133.625 121.792969 133.742188 116.867188 136.613281 C 116.753906 136.679688 115.78125 137.363281 115.742188 137.3125 C 115.628906 134.71875 117.070312 132.34375 118.953125 130.691406 C 119.109375 130.550781 119.578125 130.265625 119.664062 130.148438 C 119.710938 130.085938 119.710938 130.0625 119.710938 129.988281 C 119.710938 129.753906 119.554688 129.148438 119.496094 128.890625 C 119.089844 127.339844 118.066406 126.039062 116.367188 125.914062 C 116.03125 125.890625 115.660156 125.949219 115.332031 125.914062 C 113.359375 125.722656 113.226562 122.84375 115.234375 122.445312 C 116.3125 122.230469 117.679688 122.476562 118.679688 122.890625 C 121.132812 123.910156 122.710938 126.359375 122.984375 128.96875 Z M 122.984375 128.972656 " fill-opacity="1" fill-rule="nonzero"/><g clip-path="url(#74103eb442)"><path fill="#fbf0df" d="M 595.71875 18.0625 L 605.179688 18.0625 L 605.179688 276.433594 L 595.71875 276.433594 Z M 595.71875 18.0625 " fill-opacity="1" fill-rule="nonzero"/></g><path fill="#fbf0df" d="M 679.972656 59.742188 C 730.746094 52.722656 735.316406 124.75 691.324219 129.320312 C 642.082031 134.4375 638.726562 65.441406 679.972656 59.742188 Z M 681.421875 70.648438 C 656.109375 74.71875 657.785156 122.691406 690.511719 118.3125 C 717.929688 114.640625 714.816406 65.273438 681.421875 70.648438 Z M 681.421875 70.648438 " fill-opacity="1" fill-rule="nonzero"/><path fill="#fbf0df" d="M 746.378906 121.410156 L 746.378906 144.703125 L 735.09375 144.703125 L 734.003906 143.613281 L 734.003906 77.019531 L 746.378906 77.019531 L 746.386719 85.023438 C 761.886719 64.863281 787.085938 80.078125 787.199219 102.84375 C 787.308594 125.777344 762.773438 139.148438 746.378906 121.410156 Z M 760.027344 86.683594 C 740.667969 87.449219 741.300781 120.019531 761.300781 119.277344 C 780.480469 118.566406 778.785156 85.945312 760.027344 86.683594 Z M 760.027344 86.683594 " fill-opacity="1" fill-rule="nonzero"/><path fill="#e6252d" d="M 1030.222656 162.898438 L 1030.222656 190.550781 C 1045.265625 172.390625 1069.640625 183.476562 1071.007812 206.164062 C 1072.496094 230.777344 1048.496094 245.167969 1030.230469 226.941406 L 1030.222656 234.222656 L 1018.574219 234.222656 L 1018.574219 163.984375 L 1019.664062 162.898438 Z M 1048.949219 192.226562 C 1029.1875 186.746094 1022.460938 221.222656 1041.679688 224.578125 C 1063.390625 228.375 1063.835938 196.355469 1048.949219 192.226562 Z M 1048.949219 192.226562 " fill-opacity="1" fill-rule="nonzero"/><path fill="#fbf0df" d="M 990.785156 66.960938 L 985.316406 76.21875 C 979.003906 71.511719 956.292969 64.929688 956.113281 78.089844 C 955.972656 88.375 974.125 88.933594 981.222656 92.171875 C 1009.25 104.941406 988.542969 140.429688 953.089844 126.125 C 943.210938 122.136719 938.398438 118.675781 948.441406 110.59375 C 957.378906 116.765625 970.109375 122.90625 980.011719 115.230469 C 992.414062 98.214844 947.90625 103.488281 944.515625 84.476562 C 939.632812 57.089844 974.402344 53.816406 990.785156 66.960938 Z M 990.785156 66.960938 " fill-opacity="1" fill-rule="nonzero"/><path fill="#fbf0df" d="M 1028.628906 75.765625 C 1063.515625 73.808594 1067.121094 125.410156 1034.863281 129.335938 C 994.914062 134.195312 993.636719 77.734375 1028.628906 75.765625 Z M 1025.660156 87.378906 C 1011.117188 90.429688 1011.445312 117.015625 1027.742188 119.15625 C 1052.574219 122.425781 1051.140625 82.035156 1025.660156 87.378906 Z M 1025.660156 87.378906 " fill-opacity="1" fill-rule="nonzero"/><path fill="#fbf0df" d="M 1228.914062 107.585938 C 1231.027344 121.933594 1247.519531 123.082031 1256.804688 114.246094 L 1263.035156 120.890625 C 1240.179688 143.4375 1205.738281 119.125 1220.050781 89.625 C 1233.4375 62.023438 1272.558594 79.136719 1264.941406 107.585938 Z M 1254.382812 99.578125 C 1253.332031 81.703125 1229.355469 82.015625 1228.914062 99.578125 Z M 1254.382812 99.578125 " fill-opacity="1" fill-rule="nonzero"/><path fill="#e6252d" d="M 754.382812 182.546875 L 766.027344 182.546875 L 766.027344 234.222656 L 754.382812 234.222656 L 754.371094 226.941406 C 744.816406 240.9375 720.175781 236.097656 720.175781 217.84375 L 720.175781 182.546875 L 731.457031 182.546875 C 736.410156 193.792969 723.519531 229.972656 747.121094 223.6875 C 750.527344 222.78125 754.382812 217.503906 754.382812 214.207031 Z M 754.382812 182.546875 " fill-opacity="1" fill-rule="nonzero"/><path fill="#fbf0df" d="M 1080.4375 77.015625 L 1080.4375 110.859375 C 1080.4375 121.171875 1102.273438 121.164062 1102.273438 109.402344 L 1102.273438 77.015625 L 1113.917969 77.015625 L 1113.917969 128.691406 L 1102.273438 128.691406 L 1102.261719 121.410156 C 1095.277344 134.5625 1068.792969 129.957031 1068.792969 115.953125 L 1068.792969 77.015625 Z M 1080.4375 77.015625 " fill-opacity="1" fill-rule="nonzero"/><g clip-path="url(#0c26ed895a)"><path fill="#e6252d" d="M 1312.914062 193.152344 C 1306.882812 191.34375 1299.839844 188.15625 1299.070312 197.84375 C 1300.75 204.585938 1324.207031 202.992188 1325.746094 217.078125 C 1327.648438 234.511719 1310.15625 237.003906 1297.011719 233.449219 C 1288.207031 231.066406 1282.355469 227.648438 1291.132812 219.816406 C 1295.21875 224.042969 1314.765625 229.828125 1315.289062 220.648438 C 1315.820312 211.375 1288.402344 215.660156 1287.855469 198.160156 C 1287.28125 179.6875 1313.21875 177.972656 1324.1875 187.394531 L 1320.175781 196.3125 C 1317.636719 195.570312 1315.445312 193.910156 1312.914062 193.152344 Z M 1312.914062 193.152344 " fill-opacity="1" fill-rule="nonzero"/></g><path fill="#fbf0df" d="M 1188.023438 75.769531 C 1195.914062 75.25 1205.871094 78.019531 1209.734375 85.398438 L 1202.96875 92.96875 C 1166.507812 67.078125 1166.503906 139.324219 1203.695312 113.46875 L 1209.667969 121.414062 C 1198.019531 133.328125 1176.53125 132.308594 1167.640625 117.546875 C 1157.371094 100.507812 1167.917969 77.097656 1188.019531 75.769531 Z M 1188.023438 75.769531 " fill-opacity="1" fill-rule="nonzero"/><path fill="#e6252d" d="M 1179.421875 168.722656 L 1179.421875 182.550781 L 1192.519531 182.550781 L 1192.519531 193.464844 L 1179.421875 193.464844 L 1179.421875 220.757812 C 1179.421875 221.039062 1180.796875 222.980469 1181.210938 223.328125 L 1192.515625 223.304688 L 1192.082031 232.851562 C 1185.425781 237.335938 1167.773438 234.777344 1167.773438 225.121094 L 1167.773438 193.460938 L 1161.21875 193.460938 L 1161.21875 182.546875 L 1167.773438 182.546875 L 1167.773438 168.71875 L 1179.421875 168.71875 Z M 1179.421875 168.722656 " fill-opacity="1" fill-rule="nonzero"/><path fill="#fbf0df" d="M 1158.3125 89.386719 C 1149.035156 87.621094 1140.121094 96.96875 1140.121094 105.765625 L 1140.121094 128.691406 L 1128.476562 128.691406 L 1128.476562 77.015625 L 1140.121094 77.015625 L 1140.121094 87.929688 C 1143.824219 81.542969 1149.824219 74.03125 1158.3125 76.648438 Z M 1158.3125 89.386719 " fill-opacity="1" fill-rule="nonzero"/><path fill="#e6252d" d="M 954.53125 181.820312 L 954.53125 194.917969 C 946.554688 193.355469 937.0625 202.054688 937.0625 209.839844 L 937.0625 234.222656 L 925.417969 234.222656 L 925.417969 182.546875 L 937.0625 182.546875 L 937.0625 193.460938 C 939.894531 186.230469 946.574219 181.179688 954.53125 181.816406 Z M 954.53125 181.820312 " fill-opacity="1" fill-rule="nonzero"/><path fill="#e6252d" d="M 792.957031 234.222656 L 781.3125 234.222656 L 781.3125 162.898438 L 791.863281 162.898438 L 792.957031 163.992188 Z M 792.957031 234.222656 " fill-opacity="1" fill-rule="nonzero"/><path fill="#e6252d" d="M 1111.007812 163.628906 L 1122.65625 163.628906 L 1122.65625 234.226562 L 1111.007812 234.226562 Z M 1111.007812 163.628906 " fill-opacity="1" fill-rule="nonzero"/><path fill="#e6252d" d="M 1083.347656 182.546875 L 1094.996094 182.546875 L 1094.996094 234.222656 L 1083.347656 234.222656 Z M 1083.347656 182.546875 " fill-opacity="1" fill-rule="nonzero"/><path fill="#e6252d" d="M 1138.664062 182.546875 L 1150.308594 182.546875 L 1150.308594 234.222656 L 1138.664062 234.222656 Z M 1138.664062 182.546875 " fill-opacity="1" fill-rule="nonzero"/><path fill="#e6252d" d="M 1204.894531 182.546875 L 1216.539062 182.546875 L 1216.539062 234.222656 L 1204.894531 234.222656 Z M 1204.894531 182.546875 " fill-opacity="1" fill-rule="nonzero"/><path fill="#e6252d" d="M 1204.894531 163.628906 L 1217.265625 163.628906 L 1217.265625 175.273438 L 1204.894531 175.273438 Z M 1204.894531 163.628906 " fill-opacity="1" fill-rule="nonzero"/><path fill="#e6252d" d="M 1083.347656 163.628906 L 1095.722656 163.628906 L 1095.722656 175.273438 L 1083.347656 175.273438 Z M 1083.347656 163.628906 " fill-opacity="1" fill-rule="nonzero"/><path fill="#e6252d" d="M 1137.9375 163.628906 L 1150.308594 163.628906 L 1150.308594 175.273438 L 1137.9375 175.273438 Z M 1137.9375 163.628906 " fill-opacity="1" fill-rule="nonzero"/><path fill="#e6252d" d="M 876.535156 213.226562 C 878.648438 227.574219 895.144531 228.722656 904.425781 219.886719 L 910.65625 226.53125 C 887.804688 249.078125 853.363281 224.761719 867.671875 195.265625 C 881.058594 167.664062 920.179688 184.777344 912.5625 213.226562 Z M 902.011719 205.222656 C 900.960938 187.347656 876.984375 187.660156 876.539062 205.222656 Z M 902.011719 205.222656 " fill-opacity="1" fill-rule="nonzero"/><path fill="#e6252d" d="M 1241.636719 213.339844 C 1243.75 227.6875 1260.246094 228.835938 1269.53125 220 L 1275.761719 226.644531 C 1252.90625 249.191406 1218.464844 224.875 1232.777344 195.378906 C 1246.160156 167.777344 1285.285156 184.890625 1277.667969 213.339844 Z M 1267.109375 205.328125 C 1266.058594 187.457031 1242.082031 187.769531 1241.636719 205.328125 Z M 1267.109375 205.328125 " fill-opacity="1" fill-rule="nonzero"/><path fill="#fbf0df" d="M 808.113281 107.167969 C 810.226562 121.515625 826.71875 122.660156 836.003906 113.828125 L 842.234375 120.472656 C 819.378906 143.019531 784.9375 118.703125 799.25 89.203125 C 812.636719 61.605469 851.757812 78.71875 844.140625 107.167969 Z M 833.582031 99.15625 C 832.53125 81.285156 808.554688 81.597656 808.113281 99.15625 Z M 833.582031 99.15625 " fill-opacity="1" fill-rule="nonzero"/><path fill="#e6252d" d="M 983.570312 182.320312 C 990.769531 182.320312 996.519531 184.355469 1000.820312 188.417969 C 1005.125 192.484375 1007.269531 197.855469 1007.269531 204.519531 L 1007.269531 234.214844 L 995.171875 234.214844 L 995.171875 226.414062 C 993.570312 229.078125 991.117188 231.230469 987.820312 232.863281 C 984.519531 234.496094 981.136719 235.308594 977.671875 235.308594 C 971.867188 235.308594 967.183594 233.808594 963.621094 230.8125 C 960.054688 227.8125 958.269531 223.875 958.269531 219.007812 C 958.269531 214.140625 960.152344 210.457031 963.921875 207.5625 C 967.683594 204.660156 972.671875 203.210938 978.867188 203.210938 C 985.066406 203.210938 990.230469 204.644531 995.171875 207.515625 L 995.171875 203.914062 C 995.171875 200.316406 993.988281 197.414062 991.617188 195.214844 C 989.25 193.019531 986.066406 191.914062 982.066406 191.914062 C 979.46875 191.914062 976.667969 192.382812 973.667969 193.316406 C 970.667969 194.25 968.132812 195.449219 966.066406 196.914062 L 962.066406 188.914062 C 964.332031 186.980469 967.480469 185.402344 971.515625 184.164062 C 975.546875 182.933594 979.566406 182.316406 983.566406 182.316406 L 983.570312 182.316406 Z M 981.570312 210.621094 C 978.238281 210.621094 975.570312 211.359375 973.570312 212.820312 C 971.570312 214.289062 970.570312 216.253906 970.570312 218.722656 C 970.570312 220.988281 971.554688 222.820312 973.519531 224.222656 C 975.488281 225.621094 978.105469 226.320312 981.367188 226.320312 C 983.96875 226.320312 986.566406 225.636719 989.171875 224.269531 C 991.769531 222.898438 993.835938 221.117188 995.367188 218.917969 L 995.367188 214.117188 C 991.238281 211.78125 986.632812 210.617188 981.566406 210.617188 L 981.570312 210.617188 Z M 981.570312 210.621094 " fill-opacity="1" fill-rule="nonzero"/><path fill="#fbf0df" d="M 985.285156 76.738281 C 978.433594 72.441406 969.84375 67.882812 961.539062 70.75 C 954.796875 73.078125 953.460938 81.03125 959.78125 84.796875 C 971.308594 91.679688 993.433594 88.53125 993.523438 108.59375 C 993.628906 132.5 962.632812 132.058594 947.296875 122.625 C 946.242188 121.972656 942.265625 119.351562 941.738281 118.519531 C 941.507812 118.167969 941.351562 117.941406 941.613281 117.554688 L 948.285156 109.878906 C 952.523438 112.746094 956.222656 115.742188 961.273438 117.199219 C 967.894531 119.101562 981.410156 119.558594 981.714844 109.929688 C 981.976562 101.179688 967.839844 100.019531 961.609375 98.121094 C 952.703125 95.40625 944.78125 91.765625 943.972656 81.308594 C 942.074219 56.875 973.917969 54.890625 989.140625 66.1875 C 989.953125 66.785156 991.519531 67.523438 990.953125 68.757812 L 985.269531 76.734375 L 985.289062 76.734375 Z M 985.285156 76.738281 " fill-opacity="1" fill-rule="nonzero"/><path fill="#e6252d" d="M 661.855469 165.453125 L 682.414062 217.394531 L 702.40625 165.453125 L 715.460938 165.453125 L 687.011719 233.804688 L 676.613281 233.753906 L 648.796875 165.453125 Z M 661.855469 165.453125 " fill-opacity="1" fill-rule="nonzero"/><path fill="#fbf0df" d="M 883.832031 76.960938 C 889.382812 76.960938 893.855469 78.953125 897.238281 82.945312 C 900.621094 86.933594 902.3125 92.183594 902.3125 98.695312 L 902.3125 126.65625 L 890.628906 126.65625 L 890.628906 99.175781 C 890.628906 95.34375 889.707031 92.28125 887.851562 89.984375 C 885.996094 87.683594 883.574219 86.535156 880.574219 86.535156 C 876.804688 86.535156 873.789062 87.921875 871.527344 90.699219 C 869.257812 93.476562 868.09375 97.160156 868.03125 101.761719 L 868.03125 126.65625 L 856.445312 126.65625 L 856.445312 78.015625 L 868.03125 78.015625 L 868.03125 86.726562 C 869.308594 83.792969 871.378906 81.429688 874.253906 79.644531 C 877.125 77.855469 880.320312 76.964844 883.828125 76.964844 L 883.832031 76.964844 Z M 883.832031 76.960938 " fill-opacity="1" fill-rule="nonzero"/><path fill="#e6252d" d="M 835.492188 182.867188 C 841.046875 182.867188 845.515625 184.863281 848.898438 188.855469 C 852.28125 192.84375 853.976562 198.09375 853.976562 204.601562 L 853.976562 232.566406 L 842.289062 232.566406 L 842.289062 205.085938 C 842.289062 201.253906 841.367188 198.1875 839.511719 195.890625 C 837.660156 193.59375 835.234375 192.441406 832.234375 192.441406 C 828.464844 192.441406 825.453125 193.828125 823.1875 196.609375 C 820.917969 199.386719 819.753906 203.070312 819.691406 207.667969 L 819.691406 232.566406 L 808.105469 232.566406 L 808.105469 183.925781 L 819.691406 183.925781 L 819.691406 192.636719 C 820.96875 189.703125 823.042969 187.339844 825.914062 185.550781 C 828.785156 183.765625 831.980469 182.871094 835.488281 182.871094 L 835.492188 182.871094 Z M 835.492188 182.867188 " fill-opacity="1" fill-rule="nonzero"/><path fill="#000000" d="M 171.90625 126.839844 C 171.683594 126.597656 171.445312 126.355469 171.207031 126.125 C 170.96875 125.898438 170.746094 125.640625 170.511719 125.410156 C 170.273438 125.183594 170.050781 124.925781 169.8125 124.695312 C 169.578125 124.464844 169.351562 124.207031 169.117188 123.980469 C 168.878906 123.75 168.65625 123.492188 168.417969 123.265625 C 168.183594 123.035156 167.957031 122.777344 167.722656 122.550781 C 167.484375 122.320312 167.261719 122.0625 167.023438 121.832031 C 173.941406 128.808594 177.902344 138.296875 178.054688 148.246094 C 178.054688 171.957031 154.601562 191.246094 125.769531 191.246094 C 109.621094 191.246094 95.175781 185.195312 85.570312 175.707031 L 86.265625 176.421875 L 86.964844 177.136719 L 87.660156 177.851562 L 88.359375 178.570312 L 89.054688 179.285156 L 89.753906 180 L 90.449219 180.714844 C 100.042969 190.601562 114.808594 196.96875 131.34375 196.96875 C 160.179688 196.96875 183.628906 177.679688 183.628906 154.042969 C 183.628906 143.941406 179.390625 134.367188 171.90625 126.839844 Z M 171.90625 126.839844 " fill-opacity="1" fill-rule="nonzero"/><path fill="#fbf0df" d="M 174.566406 148.246094 C 174.566406 170.011719 152.71875 187.65625 125.769531 187.65625 C 98.816406 187.65625 76.96875 170.011719 76.96875 148.246094 C 76.96875 134.753906 85.332031 122.835938 98.1875 115.765625 C 111.042969 108.699219 119.046875 101.457031 125.769531 101.457031 C 132.488281 101.457031 138.234375 107.367188 153.347656 115.765625 C 166.203125 122.835938 174.566406 134.753906 174.566406 148.246094 Z M 174.566406 148.246094 " fill-opacity="1" fill-rule="nonzero"/><path fill="#f6dece" d="M 174.566406 148.246094 C 174.5625 145.453125 174.1875 142.671875 173.453125 139.976562 C 169.644531 187.625 113.011719 189.914062 90.742188 175.664062 C 100.753906 183.625 113.105469 187.855469 125.769531 187.65625 C 152.675781 187.65625 174.566406 169.984375 174.566406 148.246094 Z M 174.566406 148.246094 " fill-opacity="1" fill-rule="nonzero"/><path fill="#fffefc" d="M 106.988281 113.148438 C 113.21875 109.3125 121.5 102.117188 129.644531 102.101562 C 128.390625 101.6875 127.082031 101.46875 125.769531 101.457031 C 122.394531 101.457031 118.796875 103.246094 114.265625 105.9375 C 112.6875 106.878906 111.058594 107.925781 109.328125 109.011719 C 106.082031 111.074219 102.359375 113.40625 98.175781 115.738281 C 84.902344 123.105469 76.96875 135.253906 76.96875 148.246094 C 76.96875 148.820312 76.96875 149.394531 76.96875 149.949219 C 85.417969 119.316406 100.769531 116.984375 106.988281 113.148438 Z M 106.988281 113.148438 " fill-opacity="1" fill-rule="nonzero"/><path fill="#ccbea7" d="M 121.75 105.078125 C 121.773438 108.457031 121.082031 111.800781 119.726562 114.878906 C 118.371094 117.957031 116.382812 120.703125 113.902344 122.921875 C 113.511719 123.277344 113.820312 123.964844 114.320312 123.765625 C 119.019531 121.890625 125.363281 116.28125 122.6875 104.964844 C 122.574219 104.320312 121.75 104.492188 121.75 105.078125 Z M 124.917969 105.078125 C 126.625 107.933594 127.707031 111.136719 128.09375 114.460938 C 128.480469 117.789062 128.164062 121.164062 127.160156 124.351562 C 126.996094 124.851562 127.59375 125.28125 127.929688 124.867188 C 130.980469 120.859375 133.644531 112.90625 125.671875 104.320312 C 125.265625 103.945312 124.636719 104.519531 124.917969 105.019531 Z M 128.765625 104.835938 C 131.4375 106.777344 133.671875 109.28125 135.320312 112.183594 C 136.96875 115.085938 137.988281 118.320312 138.316406 121.660156 C 138.300781 121.78125 138.332031 121.902344 138.40625 122 C 138.476562 122.097656 138.578125 122.164062 138.695312 122.183594 C 138.8125 122.203125 138.933594 122.175781 139.03125 122.109375 C 139.128906 122.042969 139.195312 121.9375 139.222656 121.820312 C 140.503906 116.824219 139.78125 108.3125 129.226562 103.890625 C 128.667969 103.660156 128.304688 104.433594 128.765625 104.777344 Z M 103.027344 119.714844 C 106.203125 118.742188 109.148438 117.089844 111.664062 114.871094 C 114.175781 112.652344 116.210938 109.914062 117.625 106.835938 C 117.875 106.324219 118.671875 106.523438 118.546875 107.09375 C 116.132812 118.542969 108.058594 120.933594 103.039062 120.617188 C 102.511719 120.632812 102.523438 119.875 103.027344 119.714844 Z M 103.027344 119.714844 " fill-opacity="1" fill-rule="evenodd"/><path fill="#000000" d="M 125.769531 191.246094 C 96.933594 191.246094 73.480469 171.957031 73.480469 148.246094 C 73.480469 133.9375 82.097656 120.589844 96.527344 112.589844 C 100.710938 110.300781 104.296875 107.996094 107.488281 105.980469 C 109.246094 104.863281 110.90625 103.820312 112.507812 102.84375 C 117.402344 99.867188 121.585938 97.878906 125.769531 97.878906 C 129.949219 97.878906 133.605469 99.597656 138.175781 102.375 C 139.570312 103.1875 140.964844 104.074219 142.457031 105.050781 C 145.929688 107.253906 149.847656 109.742188 155.003906 112.589844 C 169.4375 120.589844 178.054688 133.925781 178.054688 148.246094 C 178.054688 171.957031 154.601562 191.246094 125.769531 191.246094 Z M 125.769531 101.457031 C 122.394531 101.457031 118.796875 103.246094 114.265625 105.9375 C 112.6875 106.878906 111.058594 107.925781 109.328125 109.011719 C 106.082031 111.074219 102.359375 113.40625 98.175781 115.738281 C 84.902344 123.105469 76.96875 135.253906 76.96875 148.246094 C 76.96875 169.984375 98.859375 187.667969 125.769531 187.667969 C 152.675781 187.667969 174.566406 169.984375 174.566406 148.246094 C 174.566406 135.253906 166.632812 123.105469 153.347656 115.765625 C 148.078125 112.90625 143.964844 110.214844 140.628906 108.097656 C 139.109375 107.136719 137.714844 106.25 136.449219 105.464844 C 132.222656 102.886719 129.140625 101.457031 125.769531 101.457031 Z M 125.769531 101.457031 " fill-opacity="1" fill-rule="nonzero"/><path fill="#b71422" d="M 135.597656 158.695312 C 134.972656 161.328125 133.546875 163.6875 131.527344 165.433594 C 130.011719 166.941406 128.046875 167.886719 125.949219 168.125 C 123.785156 167.925781 121.753906 166.976562 120.191406 165.433594 C 118.191406 163.679688 116.785156 161.320312 116.175781 158.695312 C 116.15625 158.539062 116.167969 158.378906 116.21875 158.230469 C 116.265625 158.082031 116.347656 157.945312 116.457031 157.832031 C 116.5625 157.722656 116.695312 157.636719 116.839844 157.585938 C 116.984375 157.53125 117.136719 157.515625 117.289062 157.535156 L 134.496094 157.535156 C 134.648438 157.519531 134.800781 157.535156 134.941406 157.589844 C 135.085938 157.644531 135.214844 157.726562 135.320312 157.839844 C 135.425781 157.953125 135.507812 158.085938 135.554688 158.234375 C 135.601562 158.382812 135.617188 158.539062 135.597656 158.695312 Z M 135.597656 158.695312 " fill-opacity="1" fill-rule="nonzero"/><path fill="#ff6164" d="M 120.191406 165.546875 C 121.753906 167.089844 123.777344 168.050781 125.933594 168.265625 C 128.089844 168.046875 130.105469 167.089844 131.664062 165.546875 C 132.164062 165.070312 132.628906 164.558594 133.058594 164.015625 C 132.199219 163.015625 131.152344 162.207031 129.976562 161.640625 C 128.800781 161.070312 127.527344 160.753906 126.226562 160.710938 C 124.839844 160.746094 123.476562 161.125 122.265625 161.816406 C 121.050781 162.511719 120.015625 163.496094 119.257812 164.6875 C 119.578125 164.988281 119.855469 165.277344 120.191406 165.546875 Z M 120.191406 165.546875 " fill-opacity="1" fill-rule="nonzero"/><path fill="#000000" d="M 120.414062 164.417969 C 121.105469 163.5 121.988281 162.753906 123 162.242188 C 124.011719 161.726562 125.125 161.453125 126.253906 161.441406 C 128.34375 161.503906 130.332031 162.367188 131.832031 163.859375 C 132.152344 163.5 132.460938 163.128906 132.753906 162.757812 C 130.980469 161.023438 128.636719 160.039062 126.1875 159.996094 C 124.878906 160.007812 123.585938 160.316406 122.40625 160.898438 C 121.230469 161.484375 120.191406 162.328125 119.367188 163.371094 C 119.699219 163.738281 120.046875 164.089844 120.414062 164.417969 Z M 120.414062 164.417969 " fill-opacity="1" fill-rule="nonzero"/><path fill="#000000" d="M 125.894531 168.980469 C 123.570312 168.773438 121.382812 167.765625 119.6875 166.121094 C 117.53125 164.246094 116.011719 161.714844 115.351562 158.894531 C 115.304688 158.644531 115.3125 158.382812 115.375 158.136719 C 115.4375 157.890625 115.554688 157.660156 115.714844 157.464844 C 115.90625 157.226562 116.148438 157.039062 116.421875 156.910156 C 116.695312 156.785156 116.992188 156.722656 117.289062 156.734375 L 134.496094 156.734375 C 134.792969 156.726562 135.089844 156.789062 135.363281 156.914062 C 135.636719 157.042969 135.878906 157.230469 136.070312 157.464844 C 136.230469 157.660156 136.34375 157.890625 136.40625 158.136719 C 136.464844 158.386719 136.46875 158.644531 136.417969 158.894531 C 135.761719 161.714844 134.242188 164.246094 132.082031 166.121094 C 130.394531 167.761719 128.210938 168.769531 125.894531 168.980469 Z M 117.289062 158.394531 C 117.066406 158.394531 117.011719 158.492188 116.996094 158.523438 C 117.585938 160.96875 118.921875 163.160156 120.804688 164.773438 C 122.179688 166.167969 123.972656 167.050781 125.894531 167.277344 C 127.808594 167.050781 129.597656 166.179688 130.980469 164.804688 C 132.859375 163.183594 134.1875 160.996094 134.773438 158.550781 C 134.746094 158.503906 134.703125 158.46875 134.652344 158.445312 C 134.605469 158.421875 134.550781 158.414062 134.496094 158.421875 Z M 117.289062 158.394531 " fill-opacity="1" fill-rule="nonzero"/><path fill="#febbd0" d="M 146.988281 159.582031 C 151.492188 159.582031 155.144531 157.378906 155.144531 154.660156 C 155.144531 151.941406 151.492188 149.734375 146.988281 149.734375 C 142.484375 149.734375 138.832031 151.941406 138.832031 154.660156 C 138.832031 157.378906 142.484375 159.582031 146.988281 159.582031 Z M 146.988281 159.582031 " fill-opacity="1" fill-rule="nonzero"/><path fill="#febbd0" d="M 104.785156 159.582031 C 109.289062 159.582031 112.941406 157.378906 112.941406 154.660156 C 112.941406 151.941406 109.289062 149.734375 104.785156 149.734375 C 100.277344 149.734375 96.628906 151.941406 96.628906 154.660156 C 96.628906 157.378906 100.277344 159.582031 104.785156 159.582031 Z M 104.785156 159.582031 " fill-opacity="1" fill-rule="nonzero"/><path fill="#000000" d="M 108.617188 152.683594 C 110.136719 152.6875 111.625 152.226562 112.890625 151.363281 C 114.15625 150.496094 115.140625 149.265625 115.726562 147.828125 C 116.308594 146.386719 116.464844 144.800781 116.167969 143.269531 C 115.875 141.738281 115.144531 140.332031 114.070312 139.230469 C 112.996094 138.125 111.625 137.375 110.136719 137.066406 C 108.644531 136.761719 107.101562 136.917969 105.695312 137.515625 C 104.289062 138.109375 103.089844 139.121094 102.246094 140.417969 C 101.398438 141.714844 100.949219 143.238281 100.949219 144.800781 C 100.949219 146.886719 101.757812 148.890625 103.195312 150.371094 C 104.632812 151.847656 106.582031 152.679688 108.617188 152.683594 Z M 143.15625 152.683594 C 144.675781 152.695312 146.167969 152.242188 147.4375 151.382812 C 148.707031 150.523438 149.703125 149.296875 150.292969 147.855469 C 150.882812 146.417969 151.042969 144.828125 150.75 143.296875 C 150.460938 141.761719 149.734375 140.351562 148.664062 139.246094 C 147.589844 138.136719 146.222656 137.378906 144.730469 137.070312 C 143.238281 136.761719 141.691406 136.914062 140.28125 137.511719 C 138.875 138.105469 137.671875 139.117188 136.828125 140.414062 C 135.980469 141.710938 135.527344 143.238281 135.527344 144.800781 C 135.523438 146.882812 136.324219 148.878906 137.753906 150.359375 C 139.183594 151.835938 141.125 152.671875 143.15625 152.683594 Z M 143.15625 152.683594 " fill-opacity="1" fill-rule="evenodd"/><path fill="#ffffff" d="M 106.246094 145.300781 C 106.820312 145.304688 107.378906 145.132812 107.855469 144.808594 C 108.332031 144.484375 108.703125 144.023438 108.925781 143.480469 C 109.144531 142.941406 109.203125 142.34375 109.09375 141.769531 C 108.984375 141.195312 108.710938 140.664062 108.308594 140.25 C 107.902344 139.832031 107.390625 139.550781 106.828125 139.433594 C 106.269531 139.320312 105.6875 139.375 105.160156 139.601562 C 104.632812 139.824219 104.179688 140.203125 103.863281 140.691406 C 103.546875 141.179688 103.375 141.75 103.375 142.339844 C 103.375 143.121094 103.675781 143.871094 104.214844 144.425781 C 104.753906 144.984375 105.484375 145.296875 106.246094 145.300781 Z M 140.785156 145.300781 C 141.355469 145.304688 141.914062 145.132812 142.390625 144.808594 C 142.867188 144.484375 143.238281 144.023438 143.460938 143.480469 C 143.679688 142.941406 143.738281 142.34375 143.628906 141.769531 C 143.519531 141.195312 143.246094 140.664062 142.84375 140.25 C 142.441406 139.832031 141.925781 139.550781 141.367188 139.433594 C 140.804688 139.320312 140.226562 139.375 139.695312 139.601562 C 139.167969 139.824219 138.71875 140.203125 138.398438 140.691406 C 138.082031 141.179688 137.910156 141.75 137.910156 142.339844 C 137.910156 143.117188 138.210938 143.863281 138.742188 144.417969 C 139.273438 144.972656 139.996094 145.289062 140.757812 145.300781 Z M 140.785156 145.300781 " fill-opacity="1" fill-rule="evenodd"/></svg>